{
	"asset":{
		"generator":"Khronos glTF Blender I/O v5.1.20",
		"version":"2.0"
	},
	"scene":0,
	"scenes":[
		{
			"name":"Scene",
			"nodes":[
				0,
				1,
				2,
				3,
				4,
				5,
				6,
				7,
				8,
				9
			]
		}
	],
	"nodes":[
		{
			"mesh":0,
			"name":"modelToUse1",
			"rotation":[
				-0.7064341902732849,
				-0.03084353357553482,
				-0.030843570828437805,
				0.7064333558082581
			],
			"scale":[
				0.3008768856525421,
				0.3008768856525421,
				0.31087687611579895
			]
		},
		{
			"mesh":1,
			"name":"modelToUse1.004"
		},
		{
			"name":"modelToUse1.009"
		},
		{
			"mesh":2,
			"name":"modelToUse1.015"
		},
		{
			"mesh":3,
			"name":"modelToUse1.016"
		},
		{
			"mesh":4,
			"name":"modelToUse1.020"
		},
		{
			"mesh":5,
			"name":"modelToUse1.021"
		},
		{
			"mesh":6,
			"name":"modelToUse1.023"
		},
		{
			"mesh":7,
			"name":"modelToUse1.024"
		},
		{
			"mesh":8,
			"name":"modelToUse1.025"
		}
	],
	"materials":[
		{
			"doubleSided":true,
			"extras":{
				"prop":1.0,
				"prop1":1.0
			},
			"name":"\u041c\u0430\u0442\u0435\u0440\u0438\u0430\u043b.002",
			"pbrMetallicRoughness":{
				"baseColorFactor":[
					0.800000011920929,
					0.800000011920929,
					0.800000011920929,
					1
				],
				"metallicFactor":0,
				"roughnessFactor":0.5
			}
		}
	],
	"meshes":[
		{
			"name":"modelToUse1",
			"primitives":[
				{
					"attributes":{
						"POSITION":0,
						"NORMAL":1
					},
					"indices":2,
					"material":0
				}
			]
		},
		{
			"name":"modelToUse1.004",
			"primitives":[
				{
					"attributes":{
						"POSITION":3,
						"NORMAL":4
					},
					"indices":5
				}
			]
		},
		{
			"name":"modelToUse1.015",
			"primitives":[
				{
					"attributes":{
						"POSITION":6,
						"NORMAL":7
					},
					"indices":5
				}
			]
		},
		{
			"name":"modelToUse1.016",
			"primitives":[
				{
					"attributes":{
						"POSITION":8,
						"NORMAL":9
					},
					"indices":10
				}
			]
		},
		{
			"name":"modelToUse1.020",
			"primitives":[
				{
					"attributes":{
						"POSITION":11,
						"NORMAL":12
					},
					"indices":5
				}
			]
		},
		{
			"name":"modelToUse1.021",
			"primitives":[
				{
					"attributes":{
						"POSITION":13,
						"NORMAL":14
					},
					"indices":5
				}
			]
		},
		{
			"name":"modelToUse1.023",
			"primitives":[
				{
					"attributes":{
						"POSITION":15,
						"NORMAL":16
					},
					"indices":17
				}
			]
		},
		{
			"name":"modelToUse1.024",
			"primitives":[
				{
					"attributes":{
						"POSITION":18,
						"NORMAL":19
					},
					"indices":5
				}
			]
		},
		{
			"name":"modelToUse1.025",
			"primitives":[
				{
					"attributes":{
						"POSITION":20,
						"NORMAL":21
					},
					"indices":5
				}
			]
		}
	],
	"accessors":[
		{
			"bufferView":0,
			"componentType":5126,
			"count":671544,
			"max":[
				0.8922505378723145,
				0.1719408631324768,
				0.6589391231536865
			],
			"min":[
				0.4342370331287384,
				-0.01600729115307331,
				-0.651275634765625
			],
			"type":"VEC3"
		},
		{
			"bufferView":1,
			"componentType":5126,
			"count":671544,
			"type":"VEC3"
		},
		{
			"bufferView":2,
			"componentType":5125,
			"count":672081,
			"type":"SCALAR"
		},
		{
			"bufferView":3,
			"componentType":5126,
			"count":3,
			"max":[
				0.5467472076416016,
				0.10122360289096832,
				-0.6529145240783691
			],
			"min":[
				0.5441880226135254,
				0.10101201385259628,
				-0.653175950050354
			],
			"type":"VEC3"
		},
		{
			"bufferView":4,
			"componentType":5126,
			"count":3,
			"type":"VEC3"
		},
		{
			"bufferView":5,
			"componentType":5123,
			"count":3,
			"type":"SCALAR"
		},
		{
			"bufferView":6,
			"componentType":5126,
			"count":3,
			"max":[
				0.8531796336174011,
				-0.06255657970905304,
				0.7296988368034363
			],
			"min":[
				0.8511091470718384,
				-0.06462706625461578,
				0.729678213596344
			],
			"type":"VEC3"
		},
		{
			"bufferView":7,
			"componentType":5126,
			"count":3,
			"type":"VEC3"
		},
		{
			"bufferView":8,
			"componentType":5126,
			"count":9,
			"max":[
				0.8759549856185913,
				-0.015423277392983437,
				0.6429504156112671
			],
			"min":[
				0.8687083125114441,
				-0.017005829140543938,
				0.6421241760253906
			],
			"type":"VEC3"
		},
		{
			"bufferView":9,
			"componentType":5126,
			"count":9,
			"type":"VEC3"
		},
		{
			"bufferView":10,
			"componentType":5123,
			"count":9,
			"type":"SCALAR"
		},
		{
			"bufferView":11,
			"componentType":5126,
			"count":3,
			"max":[
				0.8922640085220337,
				0.27571558952331543,
				0.6968516111373901
			],
			"min":[
				0.8922638893127441,
				0.27571552991867065,
				0.6968514919281006
			],
			"type":"VEC3"
		},
		{
			"bufferView":12,
			"componentType":5126,
			"count":3,
			"type":"VEC3"
		},
		{
			"bufferView":13,
			"componentType":5126,
			"count":3,
			"max":[
				0.8956670761108398,
				0.27578005194664,
				0.6995751857757568
			],
			"min":[
				0.8956669569015503,
				0.2757800221443176,
				0.6995750665664673
			],
			"type":"VEC3"
		},
		{
			"bufferView":14,
			"componentType":5126,
			"count":3,
			"type":"VEC3"
		},
		{
			"bufferView":15,
			"componentType":5126,
			"count":9,
			"max":[
				0.6743180155754089,
				-0.037428002804517746,
				0.6450209021568298
			],
			"min":[
				0.6709766387939453,
				-0.03829200193285942,
				0.6429504156112671
			],
			"type":"VEC3"
		},
		{
			"bufferView":16,
			"componentType":5126,
			"count":9,
			"type":"VEC3"
		},
		{
			"bufferView":17,
			"componentType":5123,
			"count":9,
			"type":"SCALAR"
		},
		{
			"bufferView":18,
			"componentType":5126,
			"count":3,
			"max":[
				0.7009987235069275,
				-0.0343451052904129,
				0.6450209021568298
			],
			"min":[
				0.696857750415802,
				-0.035083044320344925,
				0.6429504156112671
			],
			"type":"VEC3"
		},
		{
			"bufferView":19,
			"componentType":5126,
			"count":3,
			"type":"VEC3"
		},
		{
			"bufferView":20,
			"componentType":5126,
			"count":3,
			"max":[
				0.9536190629005432,
				0.15102091431617737,
				-0.7256431579589844
			],
			"min":[
				0.9525632262229919,
				0.15054500102996826,
				-0.7277137041091919
			],
			"type":"VEC3"
		},
		{
			"bufferView":21,
			"componentType":5126,
			"count":3,
			"type":"VEC3"
		}
	],
	"bufferViews":[
		{
			"buffer":0,
			"byteLength":8058528,
			"byteOffset":0,
			"target":34962
		},
		{
			"buffer":0,
			"byteLength":8058528,
			"byteOffset":8058528,
			"target":34962
		},
		{
			"buffer":0,
			"byteLength":2688324,
			"byteOffset":16117056,
			"target":34963
		},
		{
			"buffer":0,
			"byteLength":36,
			"byteOffset":18805380,
			"target":34962
		},
		{
			"buffer":0,
			"byteLength":36,
			"byteOffset":18805416,
			"target":34962
		},
		{
			"buffer":0,
			"byteLength":6,
			"byteOffset":18805452,
			"target":34963
		},
		{
			"buffer":0,
			"byteLength":36,
			"byteOffset":18805460,
			"target":34962
		},
		{
			"buffer":0,
			"byteLength":36,
			"byteOffset":18805496,
			"target":34962
		},
		{
			"buffer":0,
			"byteLength":108,
			"byteOffset":18805532,
			"target":34962
		},
		{
			"buffer":0,
			"byteLength":108,
			"byteOffset":18805640,
			"target":34962
		},
		{
			"buffer":0,
			"byteLength":18,
			"byteOffset":18805748,
			"target":34963
		},
		{
			"buffer":0,
			"byteLength":36,
			"byteOffset":18805768,
			"target":34962
		},
		{
			"buffer":0,
			"byteLength":36,
			"byteOffset":18805804,
			"target":34962
		},
		{
			"buffer":0,
			"byteLength":36,
			"byteOffset":18805840,
			"target":34962
		},
		{
			"buffer":0,
			"byteLength":36,
			"byteOffset":18805876,
			"target":34962
		},
		{
			"buffer":0,
			"byteLength":108,
			"byteOffset":18805912,
			"target":34962
		},
		{
			"buffer":0,
			"byteLength":108,
			"byteOffset":18806020,
			"target":34962
		},
		{
			"buffer":0,
			"byteLength":18,
			"byteOffset":18806128,
			"target":34963
		},
		{
			"buffer":0,
			"byteLength":36,
			"byteOffset":18806148,
			"target":34962
		},
		{
			"buffer":0,
			"byteLength":36,
			"byteOffset":18806184,
			"target":34962
		},
		{
			"buffer":0,
			"byteLength":36,
			"byteOffset":18806220,
			"target":34962
		},
		{
			"buffer":0,
			"byteLength":36,
			"byteOffset":18806256,
			"target":34962
		}
	],
	"buffers":[
		{
			"byteLength":18806292,
			"uri":"venzel_section.bin"
		}
	]
}
